<?xml version="1.0" encoding="UTF-8" standalone="no"?>
<!-- Created with Inkscape (http://www.inkscape.org/) -->

<svg
   xmlns:dc="http://purl.org/dc/elements/1.1/"
   xmlns:cc="http://creativecommons.org/ns#"
   xmlns:rdf="http://www.w3.org/1999/02/22-rdf-syntax-ns#"
   xmlns:svg="http://www.w3.org/2000/svg"
   xmlns="http://www.w3.org/2000/svg"
   xmlns:sodipodi="http://sodipodi.sourceforge.net/DTD/sodipodi-0.dtd"
   xmlns:inkscape="http://www.inkscape.org/namespaces/inkscape"
   width="582"
   height="470"
   viewBox="0 0 582.00001 470.00001"
   id="svg2"
   version="1.1"
   inkscape:version="0.91 r13725"
   sodipodi:docname="controller.svg"
   inkscape:export-filename="/home/hanappe/projects/LettuceThink/LettuceScan/WebInterface/img/controller-240x194.png"
   inkscape:export-xdpi="37.110001"
   inkscape:export-ydpi="37.110001">
  <defs
     id="defs4" />
  <sodipodi:namedview
     id="base"
     pagecolor="#ffffff"
     bordercolor="#666666"
     borderopacity="1.0"
     inkscape:pageopacity="0.0"
     inkscape:pageshadow="2"
     inkscape:zoom="0.7"
     inkscape:cx="59.557962"
     inkscape:cy="339.60958"
     inkscape:document-units="px"
     inkscape:current-layer="layer1"
     showgrid="false"
     inkscape:window-width="1920"
     inkscape:window-height="1151"
     inkscape:window-x="0"
     inkscape:window-y="27"
     inkscape:window-maximized="1"
     fit-margin-top="4"
     fit-margin-left="4"
     fit-margin-right="4"
     fit-margin-bottom="4"
     units="px" />
  <metadata
     id="metadata7">
    <rdf:RDF>
      <cc:Work
         rdf:about="">
        <dc:format>image/svg+xml</dc:format>
        <dc:type
           rdf:resource="http://purl.org/dc/dcmitype/StillImage" />
        <dc:title></dc:title>
      </cc:Work>
    </rdf:RDF>
  </metadata>
  <g
     inkscape:label="Layer 1"
     inkscape:groupmode="layer"
     id="layer1"
     transform="translate(10.232269,-99.0061)">
    <ellipse
       style="opacity:1;fill:none;fill-opacity:1;fill-rule:evenodd;stroke:#363636;stroke-width:20;stroke-miterlimit:4;stroke-dasharray:none;stroke-dashoffset:0;stroke-opacity:0.66507179"
       id="path4136"
       cx="224.46913"
       cy="334.86218"
       rx="220.7014"
       ry="220.14395" />
    <g
       id="g4612">
      <path
         sodipodi:nodetypes="sssscsssscsssscsssscs"
         inkscape:connector-curvature="0"
         d="m 266.50951,524.4032 c -0.0437,9.59005 -7.72059,17.31074 -17.31074,17.31074 l -49.45927,0 c -9.59015,0 -17.5225,-7.72293 -17.31074,-17.31074 l -0.66871,-146.83193 -146.831955,-0.6687 c -9.590051,-0.0437 -17.31074,-7.72059 -17.31074,-17.31074 l 0,-49.45928 c 0,-9.59015 7.722928,-17.5225 17.31074,-17.31074 l 146.831955,-0.66871 0.66871,-146.83194 c 0.0437,-9.59005 7.72059,-17.31074 17.31074,-17.31074 l 49.45927,0 c 9.59015,0 17.5225,7.72293 17.31074,17.31074 l 0.66871,146.83194 146.83195,0.66871 c 9.59005,0.0437 17.31074,7.72059 17.31074,17.31074 l 0,49.45928 c 0,9.59015 -7.72293,17.5225 -17.31074,17.31074 l -146.83195,0.6687 z"
         style="opacity:1;fill:#484848;fill-opacity:1;fill-rule:evenodd;stroke:#ffffff;stroke-width:2.4880383;stroke-miterlimit:4;stroke-dasharray:none;stroke-dashoffset:0;stroke-opacity:1"
         id="rect4353" />
      <path
         style="fill:#ffffff;fill-opacity:1;fill-rule:evenodd;stroke:none;stroke-width:1px;stroke-linecap:butt;stroke-linejoin:miter;stroke-opacity:1"
         d="m 61.15906,313.07649 0,43.57143 -36.78572,-21.78572 z"
         id="path4178"
         inkscape:connector-curvature="0"
         sodipodi:nodetypes="cccc" />
      <path
         sodipodi:nodetypes="cccc"
         inkscape:connector-curvature="0"
         id="path4152"
         d="m 387.77921,313.07649 0,43.57143 36.78572,-21.78572 z"
         style="fill:#ffffff;fill-opacity:1;fill-rule:evenodd;stroke:none;stroke-width:1px;stroke-linecap:butt;stroke-linejoin:miter;stroke-opacity:1" />
      <path
         style="fill:#ffffff;fill-opacity:1;fill-rule:evenodd;stroke:none;stroke-width:1px;stroke-linecap:butt;stroke-linejoin:miter;stroke-opacity:1"
         d="m 202.68344,171.55211 43.57143,0 -21.78572,-36.78572 z"
         id="path4349"
         inkscape:connector-curvature="0"
         sodipodi:nodetypes="cccc" />
      <path
         sodipodi:nodetypes="cccc"
         inkscape:connector-curvature="0"
         id="path4363"
         d="m 202.68344,498.17226 43.57143,0 -21.78572,36.78572 z"
         style="fill:#ffffff;fill-opacity:1;fill-rule:evenodd;stroke:none;stroke-width:1px;stroke-linecap:butt;stroke-linejoin:miter;stroke-opacity:1" />
    </g>
    <g
       id="g4600">
      <path
         sodipodi:nodetypes="sssscsssscsssscsssscs"
         inkscape:connector-curvature="0"
         d="m 360.51761,299.72167 c 8.01616,0 14.4696,6.45344 14.4696,14.4696 l 0,41.34173 c 0,8.01616 -6.45344,14.46961 -14.4696,14.46961 l -100.90603,-0.0137 -0.002,100.92182 c -1.6e-4,8.01616 -6.45345,14.4696 -14.46961,14.4696 l -41.34173,0 c -8.01616,0 -14.4696,-6.45344 -14.4696,-14.4696 l -0.002,-100.87441 -100.905977,-0.0336 c -8.016161,-0.003 -14.469604,-6.45345 -14.469604,-14.46961 l 0,-41.34173 c 0,-8.01616 6.453443,-14.47069 14.469604,-14.4696 l 100.937627,0.0137 -0.0295,-103.63662 c 0,-8.01616 6.45344,-11.75483 14.4696,-11.75483 l 41.34173,0 c 8.01616,0 14.46819,6.45345 14.46961,14.46961 l 0.0178,100.95341 z"
         style="opacity:1;fill:#646464;fill-opacity:1;fill-rule:evenodd;stroke:#ffffff;stroke-width:3;stroke-miterlimit:4;stroke-dasharray:none;stroke-dashoffset:0;stroke-opacity:1"
         id="rect4341" />
      <path
         style="fill:#ffffff;fill-opacity:1;fill-rule:evenodd;stroke:none;stroke-width:1px;stroke-linecap:butt;stroke-linejoin:miter;stroke-opacity:1"
         d="m 202.68333,441.44766 43.57143,0 -21.78572,36.78572 z"
         id="path4361"
         inkscape:connector-curvature="0"
         sodipodi:nodetypes="cccc" />
      <path
         style="fill:#ffffff;fill-opacity:1;fill-rule:evenodd;stroke:none;stroke-width:1px;stroke-linecap:butt;stroke-linejoin:miter;stroke-opacity:1"
         d="m 331.05457,313.07642 0,43.57143 36.78572,-21.78572 z"
         id="path4148"
         inkscape:connector-curvature="0"
         sodipodi:nodetypes="cccc" />
      <path
         sodipodi:nodetypes="cccc"
         inkscape:connector-curvature="0"
         id="path4347"
         d="m 202.68333,228.27657 43.57143,0 -21.78572,-36.78572 z"
         style="fill:#ffffff;fill-opacity:1;fill-rule:evenodd;stroke:none;stroke-width:1px;stroke-linecap:butt;stroke-linejoin:miter;stroke-opacity:1" />
      <path
         sodipodi:nodetypes="cccc"
         inkscape:connector-curvature="0"
         id="path4176"
         d="m 117.88348,313.07642 0,43.57143 -36.785724,-21.78572 z"
         style="fill:#ffffff;fill-opacity:1;fill-rule:evenodd;stroke:none;stroke-width:1px;stroke-linecap:butt;stroke-linejoin:miter;stroke-opacity:1" />
    </g>
    <path
       sodipodi:nodetypes="cssccsscc"
       inkscape:connector-curvature="0"
       d="m 566.50951,524.4032 c -0.0437,9.59005 -7.72059,17.31074 -17.31074,17.31074 l -49.45927,0 c -9.59015,0 -17.5225,-7.72293 -17.31074,-17.31074 l 0,-379.08204 c 0.0437,-9.59005 7.72059,-17.31074 17.31074,-17.31074 l 49.45927,0 c 9.59015,0 17.5225,7.72293 17.31074,17.31074 z"
       style="opacity:1;fill:#484848;fill-opacity:1;fill-rule:evenodd;stroke:#ffffff;stroke-width:2.4880383;stroke-miterlimit:4;stroke-dasharray:none;stroke-dashoffset:0;stroke-opacity:1"
       id="path4489" />
    <path
       style="fill:#ffffff;fill-opacity:1;fill-rule:evenodd;stroke:none;stroke-width:1px;stroke-linecap:butt;stroke-linejoin:miter;stroke-opacity:1"
       d="m 502.68344,171.55211 43.57143,0 -21.78572,-36.78572 z"
       id="path4495"
       inkscape:connector-curvature="0"
       sodipodi:nodetypes="cccc" />
    <path
       sodipodi:nodetypes="cccc"
       inkscape:connector-curvature="0"
       id="path4497"
       d="m 502.68344,498.17226 43.57143,0 -21.78572,36.78572 z"
       style="fill:#ffffff;fill-opacity:1;fill-rule:evenodd;stroke:none;stroke-width:1px;stroke-linecap:butt;stroke-linejoin:miter;stroke-opacity:1" />
    <g
       id="g4632">
      <path
         id="path4501"
         style="opacity:1;fill:#646464;fill-opacity:1;fill-rule:evenodd;stroke:#ffffff;stroke-width:3;stroke-miterlimit:4;stroke-dasharray:none;stroke-dashoffset:0;stroke-opacity:1"
         d="m 559.60958,470.91073 c -1.6e-4,8.01616 -6.45345,14.4696 -14.46961,14.4696 l -41.34173,0 c -8.01616,0 -14.4696,-6.45344 -14.4696,-14.4696 l 1.5e-4,-274.81187 c 0,-8.01616 6.45344,-11.75483 14.4696,-11.75483 l 41.34173,0 c 8.01616,0 14.46819,6.45345 14.46961,14.46961 z"
         inkscape:connector-curvature="0"
         sodipodi:nodetypes="cssccsscc" />
      <path
         sodipodi:nodetypes="cccc"
         inkscape:connector-curvature="0"
         id="path4503"
         d="m 502.68333,441.44766 43.57143,0 -21.78572,36.78572 z"
         style="fill:#ffffff;fill-opacity:1;fill-rule:evenodd;stroke:none;stroke-width:1px;stroke-linecap:butt;stroke-linejoin:miter;stroke-opacity:1" />
      <path
         style="fill:#ffffff;fill-opacity:1;fill-rule:evenodd;stroke:none;stroke-width:1px;stroke-linecap:butt;stroke-linejoin:miter;stroke-opacity:1"
         d="m 502.68333,228.27657 43.57143,0 -21.78572,-36.78572 z"
         id="path4507"
         inkscape:connector-curvature="0"
         sodipodi:nodetypes="cccc" />
    </g>
    <g
       id="g4584">
      <path
         sodipodi:nodetypes="sssscsssscsssscsssscs"
         inkscape:connector-curvature="0"
         d="m 254.2935,420.32442 c 0,6.80345 -5.47715,12.28059 -12.28059,12.28059 l -35.08739,0 c -6.80345,0 -12.27249,-5.47714 -12.28059,-12.28059 l -0.0662,-55.57179 -55.57186,-0.0661 c -6.80345,0 -12.28059,-5.47714 -12.28059,-12.28059 l 0,-35.08739 c 0,-6.80345 5.47714,-12.27259 12.28059,-12.28059 l 55.57185,-0.0662 0.0662,-55.57184 c 0.008,-6.80344 5.47714,-12.28058 12.28059,-12.28058 l 35.08739,0 c 6.80344,0 12.27249,5.47714 12.28059,12.28058 l 0.0661,55.57186 55.57181,0.0662 c 6.80344,0 12.28058,5.47714 12.28058,12.28059 l 0,35.08739 c 0,6.80345 -5.47714,12.2725 -12.28058,12.28059 l -55.57181,0.0661 z"
         style="opacity:1;fill:#808080;fill-opacity:0.9665072;fill-rule:evenodd;stroke:#ffffff;stroke-width:3;stroke-miterlimit:4;stroke-dasharray:none;stroke-dashoffset:0;stroke-opacity:1"
         id="rect4357" />
      <path
         sodipodi:nodetypes="cccc"
         inkscape:connector-curvature="0"
         id="path4142"
         d="m 278.27929,313.07647 0,43.57143 36.78572,-21.78572 z"
         style="fill:#ffffff;fill-opacity:1;fill-rule:evenodd;stroke:none;stroke-width:1px;stroke-linecap:butt;stroke-linejoin:miter;stroke-opacity:1" />
      <path
         style="fill:#ffffff;fill-opacity:1;fill-rule:evenodd;stroke:none;stroke-width:1px;stroke-linecap:butt;stroke-linejoin:miter;stroke-opacity:1"
         d="m 202.68349,281.05206 43.57143,0 -21.78572,-36.78572 z"
         id="path4345"
         inkscape:connector-curvature="0"
         sodipodi:nodetypes="cccc" />
      <path
         style="fill:#ffffff;fill-opacity:1;fill-rule:evenodd;stroke:none;stroke-width:1px;stroke-linecap:butt;stroke-linejoin:miter;stroke-opacity:1"
         d="m 170.65908,313.07647 0,43.57143 -36.78572,-21.78572 z"
         id="path4174"
         inkscape:connector-curvature="0"
         sodipodi:nodetypes="cccc" />
      <path
         sodipodi:nodetypes="cccc"
         inkscape:connector-curvature="0"
         id="path4359"
         d="m 202.68349,388.67227 43.57143,0 -21.78572,36.78572 z"
         style="fill:#ffffff;fill-opacity:1;fill-rule:evenodd;stroke:none;stroke-width:1px;stroke-linecap:butt;stroke-linejoin:miter;stroke-opacity:1" />
      <text
         sodipodi:linespacing="110%"
         id="text4523"
         y="340.63486"
         x="244.19142"
         style="font-style:normal;font-variant:normal;font-weight:normal;font-stretch:normal;font-size:25px;line-height:110.00000238%;font-family:Roboto;-inkscape-font-specification:'Roboto, Normal';text-align:start;letter-spacing:0px;word-spacing:0px;writing-mode:lr-tb;text-anchor:start;fill:#ffffff;fill-opacity:1;stroke:none;stroke-width:1px;stroke-linecap:butt;stroke-linejoin:miter;stroke-opacity:1"
         xml:space="preserve"><tspan
           y="340.63486"
           x="244.19142"
           id="tspan4525"
           sodipodi:role="line">X</tspan></text>
      <text
         sodipodi:linespacing="110%"
         id="text4527"
         y="313.76254"
         x="216.37524"
         style="font-style:normal;font-variant:normal;font-weight:normal;font-stretch:normal;font-size:25px;line-height:110.00000238%;font-family:Roboto;-inkscape-font-specification:'Roboto, Normal';text-align:start;letter-spacing:0px;word-spacing:0px;writing-mode:lr-tb;text-anchor:start;fill:#ffffff;fill-opacity:1;stroke:none;stroke-width:1px;stroke-linecap:butt;stroke-linejoin:miter;stroke-opacity:1"
         xml:space="preserve"><tspan
           y="313.76254"
           x="216.37524"
           id="tspan4529"
           sodipodi:role="line">Y</tspan></text>
    </g>
    <g
       id="g4622">
      <path
         id="path4513"
         style="opacity:1;fill:#808080;fill-opacity:1;fill-rule:evenodd;stroke:#ffffff;stroke-width:3;stroke-miterlimit:4;stroke-dasharray:none;stroke-dashoffset:0;stroke-opacity:1"
         d="m 554.2935,420.32442 c 0,6.80345 -5.47715,12.28059 -12.28059,12.28059 l -35.08739,0 c -6.80345,0 -12.27249,-5.47714 -12.28059,-12.28059 l -10e-6,-170.9245 c 0.008,-6.80344 5.47714,-12.28058 12.28059,-12.28058 l 35.08739,0 c 6.80344,0 12.27249,5.47714 12.28059,12.28058 z"
         inkscape:connector-curvature="0"
         sodipodi:nodetypes="cssccsscc" />
      <path
         sodipodi:nodetypes="cccc"
         inkscape:connector-curvature="0"
         id="path4517"
         d="m 502.68349,281.05206 43.57143,0 -21.78572,-36.78572 z"
         style="fill:#ffffff;fill-opacity:1;fill-rule:evenodd;stroke:none;stroke-width:1px;stroke-linecap:butt;stroke-linejoin:miter;stroke-opacity:1" />
      <path
         style="fill:#ffffff;fill-opacity:1;fill-rule:evenodd;stroke:none;stroke-width:1px;stroke-linecap:butt;stroke-linejoin:miter;stroke-opacity:1"
         d="m 502.68349,388.67227 43.57143,0 -21.78572,36.78572 z"
         id="path4521"
         inkscape:connector-curvature="0"
         sodipodi:nodetypes="cccc" />
      <text
         xml:space="preserve"
         style="font-style:normal;font-variant:normal;font-weight:normal;font-stretch:normal;font-size:25px;line-height:110.00000238%;font-family:Roboto;-inkscape-font-specification:'Roboto, Normal';text-align:start;letter-spacing:0px;word-spacing:0px;writing-mode:lr-tb;text-anchor:start;fill:#ffffff;fill-opacity:1;stroke:none;stroke-width:1px;stroke-linecap:butt;stroke-linejoin:miter;stroke-opacity:1"
         x="516.37524"
         y="313.76254"
         id="text4556"
         sodipodi:linespacing="110%"><tspan
           sodipodi:role="line"
           id="tspan4558"
           x="516.37524"
           y="313.76254">Z</tspan></text>
    </g>
  </g>
</svg>
